<?xml version="1.0" encoding="utf-8"?>
<!-- Generator: Adobe Illustrator 23.0.0, SVG Export Plug-In . SVG Version: 6.00 Build 0)  -->
<svg version="1.1" id="Layer_1" xmlns="http://www.w3.org/2000/svg" xmlns:xlink="http://www.w3.org/1999/xlink" x="0px" y="0px"
	 viewBox="0 0 65 35" style="enable-background:new 0 0 65 35;" xml:space="preserve">
<style type="text/css">
	.st0{fill:#CE5260;}
</style>
<g>
	<g>
		<path class="st0" d="M10.74,31.02c0.32-0.92,0.69-1.82,0.94-2.75c0.61-2.3-0.07-4.32-1.55-6.07c-1.38-1.63-2.96-3.1-4.26-4.78
			c-1.85-2.37-2.54-5.47-0.9-8.15c0.3-0.48,0.65-0.93,1.05-1.34C6.83,7.1,7.82,6.46,8.81,5.84c1.15-0.73,2.33-1.45,3.63-1.87
			c-0.58,1.36-1.33,2.64-1.63,4.11c-0.25,1.23-0.19,2.49,0.21,3.68c0.22,0.64,0.52,1.24,0.88,1.81c0.42,0.66,0.95,1.2,1.41,1.82
			c0.85,0.93,1.68,1.91,2.39,2.95c1.69,2.47,1.86,5.05,0.3,7.66C14.73,28.16,12.94,29.8,10.74,31.02z"/>
		<path class="st0" d="M14.85,9.6c0.15,0.22,0.31,0.44,0.48,0.65c1.01,1.25,2.34,2.19,3.45,3.34c1.12,1.14,2.14,2.46,2.65,3.99
			c0.13,0.38,0.23,0.78,0.29,1.18c0.57,3.75-2.47,6.96-5.6,8.5c0.14-0.31,0.26-0.64,0.44-0.93c1.63-2.74,1.58-5.48-0.18-8.09
			c-1.09-1.62-2.45-3.05-3.63-4.61c-1.99-2.64-2.03-5.68-0.16-8.4c0.11-0.16,0.22-0.35,0.35-0.49c-0.03,0.03,0.27,0.98,0.28,1.03
			c0.13,0.53,0.29,1.06,0.49,1.57C14,8.14,14.38,8.9,14.85,9.6z"/>
		<path class="st0" d="M9.76,30.94c0.18-0.24-0.34-1.37-0.45-1.62c-0.24-0.53-0.57-1.01-0.95-1.45c-0.83-0.96-1.92-1.65-2.85-2.51
			c-1.21-1.12-1.83-2.6-1.97-4.23c-0.11-1.22,0.05-3.61,1.02-4.53c0.71,0.95,1.4,1.91,2.19,2.81c0.87,1,1.83,1.94,2.67,2.96
			c0.78,0.94,1.58,2.01,1.79,3.24C11.53,27.5,10.87,29.43,9.76,30.94z"/>
	</g>
	<g>
		<path class="st0" d="M23.98,23.32c0.01,0,0.02-0.01,0.02-0.01c0.01-0.01,0.01-0.01,0.02-0.01c0.01,0,0.01,0.01,0.02,0.02
			c0,0.01,0.01,0.02,0.02,0.02c0.01-0.01,0.01-0.01,0.02-0.02c0.01-0.01,0.01-0.01,0.02-0.01c0.02,0.01,0.04,0.02,0.04,0.04
			c0.01,0.01,0.02,0.01,0.03,0.02c0.01,0.01,0.02,0.01,0.03,0.01c0,0.01,0.01,0.02,0.02,0.02c0.01,0.01,0.01,0.01,0.02,0.02
			c0.02,0.01,0.05,0.02,0.09,0.05c0.04,0.02,0.07,0.04,0.09,0.06c0.02,0.01,0.05,0.03,0.07,0.04c0.02,0.01,0.04,0.03,0.07,0.05
			c0.02,0.01,0.04,0.03,0.06,0.05c0.02,0.02,0.04,0.03,0.07,0.04c0.02,0.03,0.05,0.05,0.08,0.06c0.03,0.01,0.06,0.02,0.09,0.05
			c0.02,0.01,0.04,0.03,0.06,0.04c0.02,0.02,0.04,0.03,0.06,0.04c0.01,0.01,0.02,0.02,0.03,0.03c0.01,0.01,0.02,0.02,0.03,0.03
			c0.05,0.03,0.07,0.05,0.08,0.07c0.01,0.01,0.02,0.01,0.03,0.02c0.01,0.01,0.03,0.02,0.04,0.04c0.01,0.01,0.03,0.02,0.04,0.04
			c0.01,0.01,0.02,0.02,0.02,0.04c-0.01,0.02-0.01,0.04-0.01,0.06c0,0.02,0,0.03-0.01,0.04c0.01,0.02,0.02,0.04,0.02,0.06
			c-0.01,0.03-0.03,0.06-0.06,0.08c-0.01,0.02-0.02,0.04-0.03,0.05c-0.01,0.01-0.02,0.03-0.03,0.05c-0.02,0.01-0.03,0.02-0.03,0.03
			c0,0.01-0.01,0.02-0.01,0.02c-0.04,0.06-0.08,0.1-0.12,0.14c-0.04,0.04-0.07,0.08-0.11,0.13c-0.02,0.01-0.04,0.03-0.06,0.05
			c-0.02,0.02-0.03,0.04-0.04,0.07c-0.02,0.02-0.04,0.04-0.05,0.06c-0.02,0.02-0.04,0.04-0.05,0.06c0,0.01-0.01,0.02-0.02,0.03
			c-0.01,0.01-0.02,0.02-0.02,0.03c-0.03,0.01-0.05,0.03-0.06,0.06c-0.02,0.02-0.04,0.05-0.06,0.06l-0.02,0.04
			c-0.01,0.01-0.02,0.01-0.03,0.03c-0.01,0.01-0.03,0.03-0.04,0.04c-0.01,0.02-0.02,0.03-0.03,0.04c-0.01,0.01-0.01,0.02-0.02,0.03
			c-0.01,0-0.02,0.01-0.03,0.02c-0.01,0.01-0.03,0.03-0.04,0.05c-0.01,0.02-0.03,0.03-0.04,0.05c-0.01,0.02-0.02,0.03-0.02,0.03
			l-0.03,0.03c0,0.07,0,0.15,0.01,0.22c0,0.08,0,0.15,0,0.22v0.14l-0.02,0.04c-0.01,0-0.02,0-0.03-0.01
			c-0.01-0.01-0.01-0.01-0.02-0.01c-0.01,0-0.02,0.01-0.03,0.02c-0.01,0.01-0.02,0.02-0.02,0.02c-0.02,0-0.03,0.01-0.04,0.01
			c-0.01,0.01-0.02,0.01-0.03,0.02c-0.01-0.01-0.03-0.01-0.04-0.01c-0.03,0.01-0.04,0.01-0.04,0c0-0.01,0-0.01-0.02-0.01
			c-0.02,0.02-0.03,0.03-0.03,0.03c-0.01,0-0.02,0-0.03,0c-0.01,0-0.02,0-0.03,0c-0.01-0.02-0.02-0.04-0.02-0.07
			c-0.01-0.02-0.02-0.05-0.03-0.07c0.01-0.03,0.01-0.05,0-0.06c0.01-0.03,0.02-0.06,0.02-0.1c0-0.04,0-0.07,0-0.11
			c0-0.02,0-0.04,0-0.06c0-0.02,0-0.04,0-0.05c0-0.03,0-0.07-0.01-0.1c0-0.03-0.01-0.07-0.01-0.11c0-0.08,0-0.17,0.01-0.25
			c0-0.08,0.01-0.17,0.01-0.25c0-0.05,0-0.09-0.01-0.14c0-0.05-0.01-0.1-0.01-0.14c0-0.03,0-0.06,0-0.08c0-0.03,0-0.05,0.01-0.08
			c0-0.13,0-0.25,0.01-0.37c0-0.12,0.01-0.23,0.01-0.35c0-0.04,0-0.07,0-0.11c0-0.03,0-0.07,0-0.11c0-0.02,0-0.04,0-0.06
			c0-0.02,0-0.04,0-0.06c0.01-0.09,0.01-0.17,0.01-0.26l0-0.07c0.01-0.02,0.02-0.02,0.04-0.02c0.03,0,0.04,0.01,0.06,0.03
			c0.02,0,0.03-0.01,0.05-0.01c0.01,0,0.03-0.01,0.04-0.01C23.95,23.29,23.97,23.3,23.98,23.32z M24.19,23.97c0,0.01,0,0.02,0,0.03
			c0,0.01,0,0.01-0.01,0.02c0,0.01,0,0.02,0,0.03c0,0.01,0,0.02,0,0.03c0,0.06,0,0.13,0,0.19c0,0.06,0,0.12,0,0.18l-0.01,0.22
			c0,0.01,0,0.03,0,0.05c0,0.02,0,0.03,0,0.05c0,0.01,0,0.03,0,0.04c0,0.01,0,0.03,0,0.04c0,0.04,0,0.07,0.01,0.11
			c0.01-0.01,0.02-0.01,0.02-0.03c0-0.01,0.01-0.02,0.02-0.03c0.05-0.06,0.1-0.12,0.15-0.18c0.05-0.06,0.09-0.13,0.14-0.19
			c0.04-0.05,0.08-0.09,0.11-0.13c0.03-0.03,0.05-0.07,0.07-0.12c-0.04-0.03-0.08-0.06-0.12-0.09c-0.04-0.03-0.09-0.06-0.13-0.08
			c0-0.01-0.01-0.01-0.02-0.02c-0.01-0.01-0.02-0.02-0.03-0.02c-0.01-0.01-0.02-0.01-0.03-0.02c-0.01-0.01-0.02-0.01-0.02-0.01
			c-0.02-0.02-0.04-0.04-0.07-0.04c-0.02,0-0.03,0-0.04-0.01c-0.01-0.01-0.02-0.01-0.02-0.02L24.19,23.97z"/>
		<path class="st0" d="M26.26,23.19c0.01,0.05,0.02,0.1,0.03,0.15c0.01,0.05,0.03,0.1,0.04,0.14c0.03,0.01,0.06,0.01,0.06,0.01
			c0.01,0,0.02,0.01,0.03,0.01c0.03,0.07,0.04,0.15,0.05,0.23c0.01,0.08,0.01,0.16,0.03,0.24c0.04,0.07,0.08,0.14,0.09,0.22
			c0.02,0.08,0.04,0.16,0.07,0.24c0.01,0.03,0.01,0.04,0.01,0.05c0,0.01,0,0.01,0,0.02c0.01,0.05,0.03,0.09,0.04,0.14
			c0.01,0.05,0.03,0.1,0.04,0.14c0.01,0.02,0.01,0.05,0.02,0.07c0.01,0.02,0.02,0.05,0.02,0.07c0.01,0.03,0.01,0.06,0.02,0.08
			c0.01,0.03,0.01,0.06,0.02,0.08c0.02,0.06,0.03,0.11,0.05,0.16c0.02,0.06,0.04,0.11,0.06,0.16c0.01,0.02,0.02,0.06,0.04,0.13
			c0.02,0.07,0.04,0.14,0.06,0.21c0.02,0.07,0.04,0.14,0.06,0.2c0.02,0.06,0.03,0.1,0.03,0.11c0,0.02,0,0.04,0.01,0.07
			c0,0.02,0.01,0.05,0.01,0.07c-0.01,0.03-0.02,0.04-0.03,0.05c-0.01,0-0.03,0-0.04,0c-0.01,0.01-0.02,0.01-0.03,0.02
			c-0.01,0.01-0.02,0.01-0.03,0.02c-0.01,0-0.01,0.01-0.02,0.01c0,0.01-0.01,0.01-0.02,0.01c-0.03,0-0.05,0-0.05,0.01
			c-0.01,0.01-0.02,0.01-0.04,0.01c-0.02-0.01-0.03-0.01-0.04,0c-0.01,0.01-0.01,0.01-0.02,0.01c-0.01,0.01-0.02,0.01-0.03,0.01
			s-0.02,0-0.03,0c0-0.01-0.01-0.02-0.01-0.03c0-0.01-0.01-0.02-0.02-0.04c-0.03-0.04-0.04-0.09-0.05-0.13
			c-0.01-0.04-0.02-0.07-0.03-0.1c-0.01-0.03-0.02-0.06-0.03-0.09c-0.01-0.03-0.02-0.06-0.03-0.09c-0.01,0.01-0.03,0.01-0.04,0.02
			c-0.01,0.01-0.02,0.02-0.03,0.03c-0.03,0-0.04,0-0.04,0.01c0,0.01,0,0.02-0.01,0.02c-0.01,0.01-0.02,0.01-0.03,0.02
			c-0.01,0.01-0.02,0.01-0.04,0c-0.01,0.01-0.02,0.03-0.03,0.04c-0.01,0.01-0.03,0.02-0.04,0.02c-0.02,0.02-0.04,0.04-0.06,0.06
			c-0.02,0.02-0.04,0.02-0.07,0.01c-0.03,0.01-0.06,0.02-0.1,0.02c-0.03,0.01-0.06,0.01-0.1,0.01c-0.04-0.01-0.06-0.03-0.07-0.04
			c-0.01-0.01-0.02-0.02-0.04-0.02c0-0.04,0-0.06-0.02-0.08c0-0.01,0-0.02,0-0.04c0-0.02,0-0.03,0.01-0.04
			c0.03-0.02,0.05-0.03,0.05-0.05c0-0.02,0.02-0.03,0.04-0.04c0-0.01,0.01-0.02,0.02-0.03c0.01-0.01,0.01-0.02,0.02-0.03
			c0.01-0.01,0.02-0.01,0.03-0.01c0.01,0,0.01-0.01,0.02-0.02c0.01,0,0.03-0.01,0.05-0.03c0.02-0.02,0.04-0.03,0.04-0.04
			c0.02-0.01,0.03-0.02,0.03-0.02c0-0.01,0.01-0.01,0.02-0.02c0.02,0,0.04,0,0.04-0.01c0.02,0.01,0.04,0.02,0.06,0.02
			c0.01,0,0.02,0,0.02,0c0.01,0,0.01,0,0.02,0c0.02-0.02,0.04-0.04,0.07-0.04c0.03-0.01,0.05-0.02,0.07-0.04
			c-0.01-0.02-0.01-0.05-0.02-0.08c0-0.03-0.01-0.06-0.02-0.08c0-0.04-0.01-0.07-0.02-0.1c-0.01-0.03-0.02-0.06-0.03-0.09
			c-0.03-0.12-0.06-0.23-0.09-0.34c-0.03-0.11-0.06-0.22-0.09-0.34c0-0.01-0.01-0.03-0.02-0.04c-0.01-0.02-0.01-0.03-0.02-0.04
			c-0.01,0.03-0.02,0.05-0.02,0.06c0,0,0,0.01-0.01,0.01c0,0.01,0,0.03-0.01,0.04c0,0.01-0.01,0.02-0.01,0.04
			c-0.01,0.02-0.01,0.05-0.02,0.07c-0.01,0.03-0.01,0.05-0.02,0.07c-0.01,0.05-0.02,0.1-0.03,0.15c-0.01,0.05-0.02,0.1-0.03,0.15
			c-0.02,0.09-0.05,0.17-0.07,0.25c-0.02,0.08-0.05,0.17-0.07,0.25c0,0.04-0.01,0.07-0.02,0.09s-0.01,0.04-0.02,0.06
			c-0.01,0.02-0.01,0.04-0.01,0.06c0,0.02-0.01,0.03-0.01,0.05c-0.03,0.09-0.06,0.18-0.08,0.27c-0.02,0.09-0.05,0.18-0.08,0.26
			c-0.01,0.01-0.02,0.01-0.02,0.02c-0.01,0.01-0.01,0.01-0.02,0.01c-0.02,0-0.03-0.01-0.03-0.02c0-0.01-0.01-0.02-0.02-0.02
			c-0.01,0-0.02,0-0.02,0.01c-0.01,0-0.01,0.01-0.02,0.01c-0.01-0.01-0.02-0.01-0.04-0.01c-0.01,0-0.03-0.01-0.03-0.02
			c-0.02,0.01-0.03,0.02-0.05,0.02c-0.02,0-0.04-0.01-0.06-0.02c-0.01,0.01-0.03,0.01-0.04,0.01c-0.01,0-0.01,0-0.02,0
			c-0.01,0-0.02-0.01-0.02-0.01c0-0.01,0-0.02,0-0.03c0-0.01,0-0.02,0-0.04c0-0.03,0-0.05-0.01-0.06c0.04-0.14,0.08-0.28,0.12-0.43
			c0.04-0.14,0.08-0.29,0.12-0.44c0.02-0.07,0.04-0.14,0.06-0.2c0.02-0.07,0.04-0.13,0.06-0.2c0.01-0.04,0.02-0.07,0.02-0.11
			c0.01-0.03,0.02-0.07,0.03-0.1c0.02-0.07,0.04-0.14,0.06-0.22c0.02-0.07,0.04-0.15,0.05-0.22c0.01-0.01,0.01-0.02,0.02-0.03
			c0-0.01,0.01-0.02,0.01-0.04l0-0.05c0.02-0.03,0.03-0.05,0.03-0.07s0.01-0.04,0.01-0.06c0.01-0.03,0.02-0.07,0.03-0.11
			c0.01-0.04,0.02-0.07,0.02-0.11c0-0.04,0.01-0.09,0.01-0.15c0-0.06,0.01-0.1,0.02-0.14c0-0.01,0.01-0.02,0.01-0.02
			c0,0,0.01-0.01,0.01-0.03c0-0.01,0.01-0.01,0.02-0.02c0.01-0.01,0.01-0.01,0.01-0.02c0.01-0.02,0.02-0.04,0.01-0.06
			c0-0.02-0.01-0.03-0.01-0.05c0.02-0.01,0.03-0.03,0.03-0.04c0-0.01,0-0.02,0-0.03c0-0.01,0.01-0.03,0.02-0.04
			c0.01-0.01,0.02-0.03,0.03-0.04c0.01,0,0.03,0,0.04,0.01c0.01,0,0.03,0,0.04,0C26.21,23.17,26.23,23.19,26.26,23.19L26.26,23.19z"
			/>
		<path class="st0" d="M28.9,23.4c-0.03,0.06-0.05,0.12-0.09,0.19c-0.03,0.07-0.06,0.14-0.08,0.19c-0.01,0.02-0.01,0.04-0.02,0.06
			c-0.01,0.02-0.01,0.04-0.02,0.06c-0.01,0.04-0.03,0.08-0.04,0.12c-0.02,0.04-0.03,0.08-0.05,0.12c-0.02,0.06-0.04,0.11-0.06,0.17
			c-0.02,0.06-0.04,0.11-0.06,0.18c-0.02,0.06-0.04,0.1-0.05,0.14c-0.01,0.04-0.03,0.08-0.04,0.12c-0.01,0.04-0.03,0.08-0.04,0.12
			c-0.01,0.04-0.02,0.08-0.03,0.11c-0.02,0.04-0.04,0.08-0.05,0.1c0,0.05-0.01,0.1-0.01,0.15c0,0.05-0.01,0.1-0.01,0.15
			c0,0.02,0,0.05,0.01,0.07c0,0.02,0.01,0.05,0.01,0.07c0,0.04,0,0.07,0,0.11c0,0.03,0,0.07,0,0.11c0,0.07,0.01,0.14,0.01,0.2
			c0,0.07,0.01,0.14,0.01,0.21c0,0.05,0,0.09-0.01,0.13c-0.01,0.03-0.01,0.07-0.01,0.11c-0.01,0.01-0.01,0.01-0.02,0.01
			c-0.01,0-0.02,0.01-0.02,0.01c-0.03,0-0.04,0-0.05,0c-0.01,0-0.02,0-0.02,0.01c-0.02-0.02-0.03-0.02-0.03-0.02c0,0,0,0-0.01,0
			c-0.03-0.01-0.04-0.02-0.04-0.02c0-0.01-0.01-0.01-0.01-0.02c-0.03,0-0.05,0-0.06,0.01c-0.01-0.01-0.01-0.01-0.02-0.02
			c0-0.01-0.01-0.01-0.02-0.02c-0.02,0-0.04-0.01-0.05-0.01c-0.01,0-0.03-0.01-0.03-0.01c-0.01-0.02-0.01-0.04-0.02-0.06
			c-0.01-0.02-0.01-0.04-0.01-0.07c0-0.02,0-0.04,0.01-0.06c0-0.02,0.01-0.04,0.01-0.06c0-0.01,0-0.03,0-0.04c0-0.01,0-0.02,0-0.04
			c0-0.01,0-0.03,0.01-0.05c-0.01-0.06-0.01-0.13-0.01-0.2c0-0.07,0-0.14,0-0.2c0-0.06,0-0.12-0.01-0.18c0-0.04,0-0.06,0-0.08
			c0-0.02,0-0.03,0-0.05c0-0.01,0-0.03,0-0.04c0-0.02,0-0.03,0-0.04c0,0,0-0.02-0.01-0.04c0-0.03-0.01-0.05-0.01-0.08
			c0-0.03-0.01-0.06-0.01-0.08c0-0.03-0.01-0.04-0.01-0.05c-0.02-0.05-0.04-0.1-0.05-0.14c-0.01-0.04-0.02-0.08-0.04-0.11
			c-0.01-0.02-0.02-0.04-0.03-0.07c-0.01-0.02-0.02-0.05-0.02-0.07c0-0.01-0.01-0.03-0.01-0.05c0-0.02-0.01-0.03-0.01-0.05
			c-0.01-0.02-0.02-0.05-0.03-0.07c-0.01-0.03-0.02-0.05-0.03-0.06c-0.01-0.02-0.02-0.05-0.03-0.07c-0.01-0.02-0.01-0.04-0.01-0.06
			c-0.01-0.03-0.02-0.06-0.03-0.09c-0.01-0.03-0.03-0.05-0.04-0.08c-0.01-0.02-0.01-0.03-0.02-0.05c0-0.01-0.01-0.03-0.01-0.04
			c0-0.01-0.01-0.02-0.02-0.04c-0.01-0.02-0.02-0.03-0.03-0.04c0-0.02-0.01-0.05-0.02-0.07c-0.01-0.02-0.02-0.04-0.02-0.07
			c-0.01-0.02-0.02-0.04-0.04-0.06c-0.01-0.04-0.02-0.08-0.04-0.11c-0.02-0.03-0.03-0.07-0.04-0.11c0.01-0.06,0.04-0.09,0.08-0.11
			c0.02-0.03,0.04-0.05,0.04-0.05c0,0,0.01,0,0.03,0c0.01-0.01,0.03-0.03,0.04-0.04c0.01-0.01,0.03-0.01,0.05-0.01
			c0-0.01,0.01-0.02,0.02-0.03c0.01-0.01,0.02-0.01,0.03-0.01c0.01,0,0.03,0.01,0.04,0.02c0.01,0.02,0.02,0.03,0.03,0.04
			c0.02,0.04,0.04,0.08,0.06,0.11c0.02,0.04,0.04,0.07,0.05,0.11c0.02,0.04,0.03,0.08,0.04,0.12c0.01,0.04,0.03,0.08,0.06,0.11
			c0.01,0.06,0.03,0.11,0.05,0.15c0.02,0.05,0.04,0.1,0.06,0.15c0.01,0.03,0.02,0.07,0.04,0.1c0.01,0.03,0.03,0.07,0.04,0.1
			c0.01,0.02,0.01,0.03,0.02,0.05c0,0.02,0.01,0.03,0.01,0.05c0,0.01,0.01,0.03,0.01,0.05c0,0.02,0.01,0.04,0.02,0.05
			c0.02-0.02,0.03-0.04,0.04-0.07c0.02-0.04,0.03-0.07,0.05-0.11c0.02-0.03,0.03-0.07,0.05-0.11c0.02-0.04,0.03-0.07,0.04-0.11
			c0.01-0.04,0.02-0.08,0.03-0.12c0-0.01,0.01-0.03,0.02-0.04c0.01-0.01,0.01-0.03,0.02-0.05c0.01-0.02,0.01-0.03,0.02-0.05
			c0-0.02,0.01-0.03,0.01-0.05c0.02-0.05,0.03-0.1,0.05-0.15c0.02-0.05,0.04-0.1,0.06-0.15c0-0.01,0.01-0.02,0.02-0.04
			c0.01-0.02,0.02-0.03,0.03-0.05c0.01-0.02,0.02-0.03,0.03-0.05c0.01-0.01,0.02-0.02,0.02-0.03c0-0.01,0.01-0.01,0.02-0.01
			c0.01,0,0.02,0,0.03-0.01c0.02,0,0.04,0.01,0.04,0.02c0.03,0.01,0.05,0.02,0.06,0.03c0.01,0.01,0.02,0.02,0.03,0.04
			c0.03,0.03,0.06,0.04,0.08,0.05c0.02,0,0.03,0.02,0.04,0.04c0.03,0.02,0.04,0.03,0.04,0.04C28.89,23.38,28.89,23.39,28.9,23.4z"/>
		<path class="st0" d="M32.59,23.28c0.01,0.02,0.02,0.03,0.04,0.02c0.01,0,0.03,0,0.05,0l0.04,0.02c0.01,0,0.02,0.01,0.03,0.01
			c0.01,0,0.01,0.01,0.02,0.01c0.02,0,0.05,0,0.08,0.02c0.03,0.02,0.05,0.03,0.05,0.04c-0.03,0.12-0.06,0.23-0.08,0.34
			c-0.03,0.11-0.06,0.22-0.08,0.33c-0.01,0.02-0.01,0.06-0.02,0.09c-0.01,0.04-0.02,0.08-0.02,0.12c-0.01,0.04-0.02,0.08-0.03,0.11
			c-0.01,0.03-0.02,0.06-0.02,0.08l-0.02,0.06c-0.04,0.2-0.08,0.39-0.13,0.59c-0.04,0.19-0.09,0.39-0.14,0.59
			c-0.02,0.06-0.03,0.13-0.04,0.2c-0.01,0.07-0.02,0.13-0.04,0.2c-0.02,0.03-0.03,0.06-0.03,0.09c0,0.02,0,0.05-0.01,0.07
			c0,0.02-0.01,0.05-0.01,0.07c-0.01,0.02-0.02,0.04-0.03,0.05c0,0.02,0,0.04-0.01,0.05c-0.01,0.01-0.01,0.02-0.02,0.04
			c-0.02,0-0.04-0.01-0.06-0.03c-0.02-0.02-0.04-0.04-0.05-0.05c-0.01-0.02-0.02-0.05-0.03-0.07C32.01,26.29,32,26.26,32,26.24
			c-0.02-0.11-0.04-0.22-0.07-0.33c-0.02-0.11-0.05-0.22-0.07-0.33c0-0.01,0-0.02-0.01-0.04c0-0.02-0.01-0.04-0.01-0.06
			c0-0.02-0.01-0.04-0.01-0.06c0-0.02-0.01-0.03-0.01-0.03c-0.01-0.1-0.03-0.21-0.05-0.31s-0.05-0.2-0.08-0.3
			c0-0.02,0-0.03-0.01-0.05c0-0.02-0.01-0.03-0.01-0.05c0-0.01-0.01-0.02-0.01-0.04c0-0.02-0.01-0.03-0.02-0.03
			c-0.01,0-0.02,0.01-0.02,0.02c0,0.02,0,0.03,0,0.05c-0.02,0.06-0.03,0.12-0.04,0.16c-0.01,0.04-0.01,0.08-0.02,0.12
			c-0.01,0.03-0.02,0.07-0.02,0.11c-0.01,0.01-0.01,0.03-0.01,0.05c0,0.02-0.01,0.04-0.01,0.05c-0.04,0.18-0.08,0.34-0.12,0.5
			c0,0.02-0.01,0.04-0.01,0.06c0,0.02-0.01,0.04-0.01,0.06c-0.01,0.07-0.03,0.14-0.03,0.21c-0.01,0.07-0.02,0.14-0.03,0.21
			c0,0.02-0.01,0.04-0.01,0.05c0,0.01-0.01,0.01-0.01,0.02c0,0-0.01,0-0.01,0.01c0,0-0.01,0.01-0.01,0.01
			c-0.01,0.02-0.01,0.04-0.01,0.04c0,0.01,0.01,0.01,0.01,0.02c0,0.01-0.01,0.01-0.02,0.01c-0.01,0-0.02,0-0.03,0
			c-0.02-0.01-0.03-0.01-0.04,0c-0.01,0.01-0.02,0.02-0.03,0.02c-0.01-0.01-0.01-0.03-0.02-0.04c-0.01-0.01-0.02-0.01-0.02-0.01
			c-0.02-0.01-0.04-0.02-0.04-0.02c-0.01,0-0.01-0.01-0.02-0.01c0-0.04-0.01-0.07-0.03-0.11c-0.01-0.03-0.02-0.07-0.03-0.1
			c-0.01-0.04-0.02-0.08-0.02-0.12c0-0.04-0.01-0.08-0.02-0.12c0-0.02-0.01-0.04-0.02-0.07c-0.01-0.03-0.01-0.05-0.01-0.07
			c0-0.03-0.01-0.05-0.01-0.07c0-0.01,0-0.02-0.01-0.03c0-0.04-0.01-0.09-0.02-0.15c-0.02-0.06-0.03-0.11-0.03-0.15
			c-0.03-0.16-0.05-0.31-0.08-0.45c0-0.02-0.01-0.04-0.02-0.06c-0.01-0.02-0.01-0.04-0.02-0.06c-0.01-0.04-0.02-0.08-0.03-0.13
			c-0.01-0.04-0.02-0.09-0.03-0.13c-0.01-0.04-0.02-0.07-0.03-0.11c-0.01-0.03-0.02-0.07-0.03-0.11c0-0.02-0.01-0.03-0.02-0.05
			c-0.01-0.02-0.01-0.03-0.02-0.05c-0.01-0.04-0.02-0.07-0.02-0.11c-0.01-0.03-0.01-0.07-0.02-0.1c-0.02-0.07-0.04-0.15-0.06-0.22
			c-0.02-0.07-0.04-0.15-0.06-0.22c0-0.02,0-0.03,0-0.04c0-0.01,0-0.02,0-0.04c0-0.01-0.01-0.02-0.01-0.04c0-0.01,0-0.03,0-0.04
			v-0.06c0.01-0.01,0.03-0.01,0.06-0.02c0.03-0.01,0.04-0.01,0.06-0.01c0.03,0,0.05,0,0.07,0c0.01,0,0.03-0.01,0.03-0.02
			c0.01,0,0.01,0,0.02,0c0.01,0,0.01,0,0.02,0c0.03-0.01,0.04-0.01,0.05,0c0.01,0,0.02-0.01,0.02-0.01c0-0.01,0.01-0.01,0.02-0.01
			c0,0,0.01,0.01,0.02,0.02c0.01,0.01,0.01,0.02,0.02,0.03c0,0.01,0.01,0.03,0.01,0.04c0,0.01,0.01,0.03,0.01,0.04
			c0.01,0.04,0.03,0.09,0.04,0.14c0.01,0.05,0.02,0.1,0.04,0.15c0.01,0.03,0.02,0.06,0.03,0.1c0.01,0.03,0.01,0.07,0.02,0.1
			c0,0.01,0.01,0.03,0.01,0.04c0,0.01,0.01,0.03,0.01,0.04c0.01,0.03,0.01,0.06,0.02,0.09c0.01,0.03,0.02,0.06,0.02,0.09
			c0.03,0.1,0.05,0.19,0.08,0.29c0.02,0.1,0.05,0.19,0.06,0.29c0,0.03,0.01,0.06,0.02,0.09c0.01,0.04,0.02,0.06,0.03,0.09
			c0.01-0.01,0.02-0.02,0.02-0.05c0-0.02,0.01-0.04,0.01-0.05c0-0.02,0.01-0.03,0.01-0.05c0-0.02,0.01-0.03,0.01-0.05
			c0.01-0.04,0.01-0.07,0.02-0.11c0.01-0.03,0.01-0.07,0.02-0.11c0.01-0.06,0.02-0.12,0.03-0.18c0.01-0.06,0.02-0.12,0.04-0.19
			c0.01-0.04,0.02-0.08,0.03-0.12c0.01-0.04,0.02-0.08,0.03-0.12c0-0.02,0.01-0.04,0.01-0.06c0-0.02,0.01-0.04,0.01-0.06
			c0.01-0.02,0.01-0.04,0.02-0.07c0.01-0.02,0.01-0.04,0.02-0.07c0.02-0.05,0.03-0.11,0.04-0.17c0.01-0.06,0.03-0.11,0.05-0.16
			c0-0.01,0.01-0.01,0.01-0.01c0,0,0.01-0.01,0.02-0.01c0.02,0.02,0.03,0.04,0.04,0.05c0.01,0.01,0.02,0.02,0.03,0.02
			c0.01,0.01,0.02,0.02,0.02,0.03c0,0.01,0.01,0.02,0.03,0.01c0.01,0.01,0.01,0.01,0.02,0.02c0,0.01,0.01,0.02,0.02,0.02
			c0.01,0.02,0.01,0.04,0.02,0.03c0,0,0.01,0,0.01,0c0,0.01,0.02,0.02,0.04,0.03c0.02,0.01,0.04,0.02,0.05,0.02
			c0,0.01,0,0.02,0.01,0.03c0,0.01,0.01,0.02,0.01,0.03c0,0.01,0,0.04-0.01,0.07c-0.01,0.03-0.01,0.06-0.02,0.08
			c0.01,0.01,0.02,0.01,0.02,0.01c0,0,0.01,0,0.01,0c0.02,0.05,0.04,0.1,0.04,0.15c0.01,0.06,0.01,0.11,0.02,0.15
			c0,0.02,0.01,0.04,0.01,0.06c0,0.02,0.01,0.04,0.01,0.06c0.01,0.06,0.02,0.11,0.03,0.16c0.01,0.05,0.02,0.11,0.03,0.16
			c0,0.01,0,0.03,0.01,0.05c0,0.02,0,0.04,0.01,0.08c0.01,0.04,0.02,0.08,0.03,0.12c0.01,0.04,0.02,0.08,0.03,0.11
			c0.01,0.04,0.02,0.06,0.03,0.08c0.01-0.01,0.02-0.03,0.02-0.06c0-0.03,0.01-0.05,0.02-0.07c0.03-0.15,0.06-0.29,0.09-0.43
			c0.03-0.14,0.06-0.29,0.09-0.44c0.02-0.1,0.04-0.19,0.06-0.28s0.05-0.18,0.08-0.28c0-0.01,0.01-0.03,0.01-0.05
			c0.03-0.01,0.05-0.01,0.06,0.01L32.59,23.28z"/>
		<path class="st0" d="M33.81,23.51c0,0.02-0.01,0.04-0.02,0.06s-0.03,0.03-0.04,0.05c-0.02,0.02-0.04,0.05-0.06,0.08
			c-0.02,0.03-0.04,0.05-0.06,0.08c-0.01,0.01-0.02,0.03-0.04,0.04c-0.02,0.02-0.03,0.04-0.05,0.05c-0.02,0.02-0.03,0.03-0.05,0.05
			c-0.02,0.01-0.03,0.02-0.04,0.02c-0.02,0-0.04-0.01-0.07-0.02c-0.03-0.02-0.05-0.03-0.07-0.03c-0.02,0-0.03,0-0.04-0.01
			c-0.01,0-0.02-0.01-0.04-0.02c-0.04-0.01-0.07-0.03-0.08-0.05c-0.01-0.02-0.02-0.05-0.04-0.07c0-0.01,0-0.02,0.01-0.02
			c0.01,0,0.01-0.01,0.02-0.02c0.02-0.04,0.04-0.07,0.06-0.09c0.02-0.02,0.03-0.05,0.06-0.07c0.04-0.04,0.08-0.08,0.11-0.13
			c0.04-0.04,0.07-0.09,0.11-0.12c0.02,0,0.03-0.01,0.04-0.02c0.01-0.01,0.02-0.02,0.04-0.02c0.02,0,0.03,0.01,0.05,0.02
			c0.01,0.01,0.02,0.03,0.03,0.05c0.01,0.02,0.02,0.04,0.03,0.05c0.01,0.02,0.02,0.03,0.04,0.04c0.02,0.01,0.04,0.03,0.07,0.05
			C33.79,23.47,33.81,23.49,33.81,23.51z M33.34,24.28c0.02,0.01,0.03,0.03,0.04,0.04c0.01,0.02,0.02,0.03,0.04,0.04
			c0.01,0.01,0.03,0.01,0.04,0.01s0.03,0,0.04,0.01c0.01,0.01,0.02,0.01,0.02,0.02c0,0.01,0.01,0.02,0.01,0.02
			c0.01,0.01,0.03,0.03,0.06,0.04c0.03,0.01,0.05,0.02,0.06,0.04c0.02,0.02,0.03,0.06,0.04,0.09c0.01,0.04,0.01,0.08,0.02,0.12
			c0,0.04,0.01,0.09,0.01,0.13c0,0.04,0.01,0.08,0.01,0.11c0,0.06,0.01,0.13,0.02,0.19c0.01,0.06,0.01,0.12,0.01,0.19
			c0,0.06,0,0.13-0.01,0.19c0,0.07-0.01,0.13-0.01,0.19c0,0.03,0,0.07,0,0.12c0,0.05-0.01,0.09-0.03,0.12c0,0.01,0,0.03,0,0.06v0.13
			c0,0.02,0,0.03,0,0.05c0,0.02,0,0.03,0,0.05c0,0.03-0.01,0.05-0.02,0.07c-0.01,0-0.01,0-0.02,0s-0.02,0-0.02,0
			c-0.03,0-0.04,0.01-0.06,0.02c-0.03,0-0.05-0.01-0.07-0.01c-0.02,0-0.05,0-0.07,0c-0.04,0-0.08,0.01-0.13,0.02
			c-0.01-0.03-0.01-0.06-0.01-0.09c0-0.03,0-0.06-0.02-0.08c0-0.01,0-0.02-0.01-0.02c0-0.01,0-0.01,0-0.02
			c0.01-0.03,0.01-0.06,0.01-0.07s0-0.03,0-0.04c0-0.04,0-0.08,0-0.12c0-0.04,0-0.08,0-0.12c0-0.01,0-0.03,0.01-0.04
			c0-0.01,0.01-0.02,0.01-0.04c0-0.01,0-0.02-0.01-0.03c0-0.01-0.01-0.01-0.01-0.02c0-0.01,0-0.02,0-0.04c0-0.02,0-0.03,0.01-0.04
			c0-0.02,0-0.04,0-0.06s0-0.04,0-0.06c0-0.04,0-0.09,0-0.13c0-0.04,0-0.09,0-0.13c0-0.02,0-0.03,0-0.04c0-0.01,0-0.01-0.01-0.01
			c0,0-0.01,0-0.01-0.01c0,0-0.01-0.01-0.01-0.01c0.01-0.12,0.01-0.24-0.01-0.36c-0.02-0.12-0.02-0.24-0.02-0.37
			c0-0.02,0-0.03,0.01-0.04c0-0.01,0.01-0.02,0.02-0.02c0.01-0.01,0.01-0.01,0.02-0.02c0.01-0.01,0.01-0.02,0.01-0.03
			C33.31,24.29,33.32,24.29,33.34,24.28z"/>
		<path class="st0" d="M35.7,23.37c0,0.01-0.01,0.02-0.01,0.03c0,0.01,0,0.02,0,0.04c0,0.03,0,0.05,0,0.05s0.01,0,0.01,0.01
			l-0.02,0.04c0,0.02,0,0.03-0.01,0.05c-0.01,0.01-0.01,0.03-0.01,0.05c-0.01,0.01-0.01,0.03-0.02,0.04
			c-0.01,0.01-0.01,0.03-0.03,0.04h-0.04c-0.03,0-0.05,0-0.08,0.01c-0.03,0-0.06,0.01-0.08,0.01c0,0-0.01,0-0.02,0
			c-0.01,0-0.01,0-0.02,0c0,0-0.01,0-0.02,0c-0.01,0-0.01,0-0.02,0c-0.03,0-0.07,0-0.1-0.01c-0.03,0-0.07-0.01-0.11-0.01
			c-0.01,0-0.02,0-0.03,0c-0.01,0-0.02,0-0.03,0c0,0.05,0,0.09-0.01,0.14c0,0.05,0,0.1,0,0.15c0,0.01,0,0.03,0,0.04
			c0,0.02,0,0.03,0,0.04c0,0.04,0,0.07-0.01,0.1c0,0.03,0,0.07,0,0.1c0,0.08,0,0.15,0,0.23c0,0.08,0,0.16,0.01,0.24
			c0,0.04,0,0.08,0.01,0.12c0,0.04,0,0.08,0,0.12c0,0.09,0,0.19,0,0.28c0,0.09,0,0.18,0,0.28c0,0.03,0,0.06,0,0.08
			c0,0.03,0,0.05,0,0.08c0,0.06,0,0.13,0,0.19c0,0.06,0,0.13,0,0.19c0,0.03,0,0.06,0,0.09c0,0.03,0,0.06,0,0.09
			c-0.01,0.02-0.02,0.04-0.02,0.06c0,0.02-0.02,0.02-0.04,0.02c-0.02-0.01-0.02-0.01-0.02-0.02c0-0.01,0-0.01-0.01-0.02
			c-0.02,0-0.04,0-0.05,0.01c-0.01,0.01-0.02,0.01-0.04,0.02c-0.01,0-0.01,0-0.02,0c-0.01,0-0.02,0-0.02,0c0,0-0.01,0-0.01,0.01
			c0,0-0.01,0.01-0.03,0.01c-0.01,0-0.02,0-0.02-0.01s-0.01-0.01-0.02-0.01c-0.01,0.01-0.02,0.01-0.04,0.02
			c-0.01,0-0.03,0.01-0.04,0.01c-0.01-0.01-0.02-0.02-0.02-0.03c0-0.01,0-0.02-0.01-0.03c0-0.01-0.01-0.01-0.01-0.02
			c-0.01-0.01-0.01-0.02-0.02-0.02c0-0.04,0.01-0.07,0.01-0.1c0-0.03,0-0.06,0-0.1c0-0.07,0-0.14-0.01-0.21
			c0-0.07-0.01-0.14-0.01-0.21c0-0.02,0-0.05,0.01-0.07s0.01-0.05,0.01-0.08c0-0.02-0.01-0.04,0-0.04c0,0,0-0.01,0-0.01
			c0-0.02,0-0.03,0-0.05c0-0.02,0-0.03,0-0.05c0-0.03,0-0.07,0-0.1c0-0.03,0-0.07,0-0.1c0-0.01,0-0.03,0-0.04c0-0.02,0-0.03,0-0.04
			c0-0.02,0-0.05,0-0.08c0-0.03,0-0.05,0-0.08c0-0.13,0-0.26-0.01-0.39c0-0.13-0.01-0.26-0.01-0.39c0-0.07,0-0.13,0.01-0.2
			c0.01-0.06,0.01-0.13,0.01-0.2c0-0.01,0-0.02-0.01-0.03c0-0.01-0.01-0.02-0.01-0.03c-0.01,0-0.02,0-0.03,0c-0.01,0-0.02,0-0.03,0
			c-0.03,0-0.05,0-0.07,0.01c-0.04,0-0.09,0.01-0.13,0.01c-0.04,0-0.08,0.01-0.12,0.01c-0.03,0-0.04,0-0.05,0c-0.01,0-0.01,0-0.02,0
			c-0.02,0-0.03-0.01-0.04-0.02v-0.05c-0.01-0.03-0.02-0.05-0.02-0.05c0,0,0-0.01,0-0.01c0-0.01-0.01-0.02-0.02-0.03
			c-0.01-0.01-0.02-0.03-0.02-0.05c0-0.02-0.01-0.04-0.01-0.05c-0.01-0.01-0.01-0.02-0.01-0.03c0-0.02,0-0.04,0.01-0.07
			c0.02-0.01,0.04-0.02,0.06-0.03c0.02-0.01,0.04-0.01,0.07-0.02c0.01-0.01,0.03-0.01,0.04-0.02c0.01-0.01,0.02-0.01,0.04-0.01
			c0.02,0,0.03,0,0.05,0s0.03,0,0.05,0c0.03-0.01,0.07-0.02,0.11-0.02c0.04-0.01,0.07-0.01,0.11-0.01c0.03,0,0.06,0,0.1,0.01
			c0.03,0.01,0.06,0.01,0.09,0.01c0.04,0,0.07,0,0.11,0.01c0.03,0.01,0.07,0.01,0.11,0.01c0,0,0.01,0,0.02,0.01
			c0.01,0,0.02,0.01,0.04,0.01h0.33c0.02,0.01,0.03,0.01,0.04,0c0.01,0,0.02,0,0.02,0c0.02,0,0.04,0,0.05,0c0.02,0,0.03,0,0.05,0
			c0.02,0,0.03,0,0.04,0c0.02,0,0.04,0.01,0.05,0.02c0.02,0.01,0.03,0.01,0.06,0.01c0.01,0.01,0.02,0.02,0.02,0.03
			S35.69,23.36,35.7,23.37z"/>
		<path class="st0" d="M37.49,23.27c0.03-0.01,0.05-0.01,0.06-0.01c0.01,0,0.02,0,0.03,0.01c0.01,0.01,0.03,0.02,0.03,0.04
			c0,0.06,0,0.11,0,0.17c0,0.06,0,0.11,0,0.17c0,0.1,0,0.21,0,0.31c0,0.1,0,0.21,0,0.31c0,0.02,0.01,0.04,0,0.04c0,0,0,0.01,0,0.01
			c0,0.1,0,0.21,0.01,0.31c0,0.1,0.01,0.2,0.01,0.31v0.55c0,0.12,0,0.24,0.01,0.35c0.01,0.12,0.01,0.23,0.01,0.35
			c0,0.01-0.01,0.03-0.02,0.05c0,0.02-0.01,0.04-0.02,0.05c-0.02,0-0.04,0-0.06-0.01c-0.01,0-0.02,0-0.02,0.01
			c0,0.01-0.01,0.01-0.02,0.02c-0.02,0-0.03,0.01-0.04,0.02c-0.01,0.01-0.03,0.02-0.04,0.02c-0.01,0-0.03,0-0.04-0.01
			c-0.01,0-0.03-0.01-0.04-0.01c0,0-0.01,0-0.02,0.01c-0.01,0.01-0.02,0.02-0.02,0.02c-0.01,0-0.02,0-0.03,0.01
			c-0.01,0-0.02,0.01-0.03,0.01c-0.01-0.01-0.02-0.03-0.02-0.05s-0.01-0.04-0.02-0.04c0-0.01,0-0.03,0-0.05c0-0.02,0-0.03,0-0.05
			c0-0.11,0-0.22-0.01-0.32c0-0.11-0.01-0.22-0.01-0.32c0-0.05,0-0.09,0-0.14c0-0.05,0-0.09,0-0.14c0-0.02,0-0.05,0-0.07
			s0-0.05-0.01-0.07c-0.01,0-0.03,0-0.04,0.01c-0.01,0.01-0.02,0.01-0.03,0.01c-0.05,0.02-0.08,0.04-0.1,0.06
			c-0.01,0-0.03,0-0.03,0.01c-0.01,0.01-0.02,0.01-0.03,0.02c-0.02,0.01-0.04,0.01-0.05,0.01c-0.02,0-0.04,0.01-0.05,0.02
			c-0.01,0.01-0.02,0.01-0.03,0.02c-0.01,0.01-0.02,0.01-0.03,0.02c-0.03,0.01-0.05,0.02-0.08,0.03c-0.03,0.01-0.05,0.02-0.08,0.03
			c-0.03,0.01-0.05,0.01-0.07,0.02c-0.02,0.01-0.04,0.02-0.06,0.03c-0.02,0.13-0.02,0.25-0.03,0.37c0,0.12,0,0.23,0.01,0.35
			c0,0.02-0.01,0.04-0.01,0.06s0,0.04-0.01,0.05c-0.03,0.01-0.04,0.01-0.05,0c-0.01-0.01-0.02-0.01-0.03-0.02
			c-0.01,0-0.02,0.01-0.02,0.02c-0.01,0.01-0.01,0.02-0.02,0.02c-0.02,0-0.03,0-0.04,0.01c-0.01,0.01-0.02,0.02-0.03,0.02
			c-0.01,0-0.01,0-0.02,0c-0.01,0-0.01,0-0.02,0c-0.02,0-0.03,0-0.03-0.01c0-0.01,0-0.01-0.01-0.01c-0.01,0-0.02,0-0.02,0.01
			c0,0.01-0.01,0.02-0.02,0.02c-0.01,0.01-0.02,0.01-0.03,0.01c-0.01,0-0.02,0-0.03,0.01c-0.01-0.01-0.02-0.03-0.02-0.05
			c0-0.02-0.01-0.03-0.02-0.05c0-0.04-0.01-0.08-0.01-0.11c0-0.04-0.01-0.07-0.01-0.11c0-0.08,0.01-0.14,0.01-0.19
			c0-0.05,0-0.09,0-0.14c0-0.04,0-0.09,0-0.13c0-0.04,0-0.09-0.01-0.13c0-0.08-0.01-0.16-0.01-0.24c0-0.08-0.01-0.16-0.01-0.25
			c0-0.07,0-0.14,0.01-0.2c0.01-0.07,0.01-0.13,0.01-0.2c0-0.05,0-0.09,0-0.14s0-0.09,0-0.14c0-0.04,0-0.08,0-0.11
			c0-0.04,0-0.07,0-0.11c0-0.04,0-0.08,0.01-0.12c0-0.04,0.01-0.08,0.01-0.12c0-0.05,0-0.09-0.01-0.14c0-0.05-0.01-0.09-0.01-0.14
			c0-0.01,0-0.03,0-0.04c0-0.01,0-0.03,0-0.04c0-0.03,0-0.05,0-0.06c0-0.01,0.01-0.02,0.01-0.03c0.01,0,0.02-0.01,0.04-0.01
			c0.01-0.01,0.03-0.01,0.04,0c0.01-0.02,0.03-0.02,0.06-0.02c0.02,0,0.04-0.01,0.05-0.03c0.02,0,0.03,0,0.03,0
			c0.01,0,0.01,0,0.02,0c0.02,0.01,0.03,0,0.03,0c0-0.01,0.01-0.01,0.01-0.01c0.01,0,0.03,0,0.05,0c0.02,0,0.04,0.01,0.05,0.02
			c0.02,0.15,0.04,0.29,0.04,0.45c0,0.15,0,0.3,0,0.45c0,0.04,0,0.08,0,0.12c0,0.04,0,0.08,0,0.12c0,0.02,0,0.03,0,0.05
			c0,0.02,0,0.03,0,0.05c0,0.05,0,0.1-0.01,0.15c0,0.05-0.01,0.1-0.01,0.15c0.03,0.02,0.05,0.03,0.07,0.02
			c0.02-0.01,0.04-0.01,0.06-0.02c0.02-0.01,0.04-0.02,0.06-0.03c0.02-0.01,0.04-0.02,0.06-0.03c0.02-0.01,0.04-0.02,0.06-0.03
			c0.02-0.01,0.04-0.01,0.06-0.02c0.06-0.02,0.12-0.05,0.18-0.09c0.06-0.04,0.12-0.06,0.18-0.09c0-0.15-0.01-0.3-0.01-0.45
			c0-0.15,0-0.3,0-0.45c0-0.04,0-0.08,0-0.13c0-0.04,0-0.09,0.01-0.13c0-0.01,0.01-0.02,0.01-0.03c0-0.01,0.01-0.02,0.01-0.03
			c0.01-0.01,0.01-0.02,0.02-0.03c0.01-0.01,0.02-0.01,0.02-0.02c0,0.01,0.01,0.01,0.02,0.01c0.01,0,0.01,0.01,0.02,0.01
			c0.02-0.01,0.03-0.01,0.03-0.01c0,0,0.01-0.01,0.01-0.01c0.01-0.01,0.03-0.01,0.04-0.01s0.03,0,0.04,0h0.04L37.49,23.27z"/>
		<path class="st0" d="M40.77,25.74c0.02,0.04,0.03,0.07,0.04,0.1c0.01,0.03,0.01,0.06,0.01,0.07c0,0.02,0,0.04-0.01,0.05
			c-0.01,0.01-0.01,0.03-0.02,0.04c-0.09,0.05-0.18,0.09-0.27,0.13c-0.09,0.04-0.18,0.08-0.28,0.12c-0.02,0.01-0.05,0.02-0.07,0.03
			c-0.02,0.01-0.05,0.02-0.07,0.02c0,0.01-0.01,0.01-0.02,0.02c-0.01,0.01-0.02,0.01-0.04,0.02c-0.01,0.01-0.03,0.01-0.04,0.01
			c-0.01,0-0.02,0.01-0.03,0.01c0-0.01-0.01-0.02-0.01-0.02c0,0-0.01-0.01-0.01-0.01c-0.01,0-0.02,0-0.02,0.01
			c0,0.01-0.01,0.02-0.02,0.02c-0.01,0-0.02,0-0.03,0c-0.01,0-0.02,0-0.02-0.01c-0.02,0.01-0.04,0.02-0.05,0.03
			c-0.01,0.01-0.03,0.02-0.05,0.03c-0.03-0.01-0.06-0.02-0.06-0.01c-0.01,0-0.02,0-0.03,0.01c-0.02-0.02-0.02-0.04-0.02-0.07
			c0-0.03-0.01-0.05-0.02-0.07c0-0.04,0-0.06-0.01-0.06c0,0-0.01-0.01-0.01-0.01c0-0.02,0-0.04,0-0.05c0-0.02,0-0.03,0-0.05
			c0.01-0.05,0.01-0.09,0.01-0.14c0-0.04,0-0.09,0-0.13c0-0.01,0-0.03,0-0.04c0-0.01,0-0.03,0-0.04c0-0.04,0-0.07,0.01-0.08
			c0-0.01,0.01-0.02,0.01-0.04c0-0.02,0-0.04,0-0.06c0-0.02,0-0.04,0-0.06c0-0.04,0-0.08,0-0.11c0-0.04,0-0.08,0-0.12
			c0-0.1-0.01-0.21-0.02-0.31c-0.01-0.1-0.02-0.21-0.02-0.31c0-0.13-0.01-0.25-0.02-0.38c-0.01-0.12-0.02-0.25-0.02-0.38
			c0-0.02,0-0.05,0-0.09c0-0.04,0-0.08,0-0.12c0-0.04,0-0.08,0-0.12c0-0.04,0-0.07,0.01-0.08c0,0,0.01-0.01,0.02-0.01
			c0.01-0.01,0.02-0.01,0.03-0.01c0.01,0,0.02,0,0.03,0.01c0.01,0.01,0.01,0.01,0.02,0.02c0.04-0.01,0.07-0.01,0.07-0.01
			c0.01,0,0.01-0.01,0.02-0.01c0.01,0,0.02,0,0.03,0.01c0.01,0.01,0.01,0.01,0.02,0.01c0.04-0.01,0.06-0.01,0.06,0
			c0,0.01,0.01,0.01,0.02,0.01c0.03-0.01,0.05-0.02,0.06-0.01c0.01,0,0.01,0,0.02,0c0.01,0,0.02,0,0.04-0.01
			c0.01-0.01,0.03-0.02,0.04-0.02c0.04-0.01,0.07-0.03,0.1-0.04c0.03-0.02,0.06-0.04,0.08-0.05c0.02-0.01,0.04-0.02,0.05-0.03
			c0.04-0.02,0.08-0.04,0.11-0.06s0.07-0.04,0.11-0.06c0.01,0,0.01,0,0.02,0c0.01,0,0.01,0,0.02-0.01c0.01,0,0.01,0,0.02,0
			c0.01,0,0.02,0,0.02,0c0.02,0.01,0.04,0.02,0.04,0.02c0.01,0.02,0.02,0.03,0.03,0.05c0.01,0.02,0.02,0.03,0.03,0.04
			c0.01,0.02,0.02,0.04,0.03,0.04c0,0.01,0,0.02-0.01,0.03c-0.01,0.01-0.01,0.02-0.01,0.03c0.02,0.04,0.03,0.07,0.04,0.11
			c0.01,0.03,0.02,0.06,0.02,0.07c0,0.02,0,0.04-0.01,0.05c0,0.01-0.01,0.03-0.02,0.04c-0.09,0.05-0.18,0.1-0.26,0.15
			c-0.09,0.05-0.18,0.1-0.27,0.14c-0.02,0.01-0.04,0.02-0.07,0.04s-0.04,0.02-0.07,0.03c0,0.01-0.01,0.01-0.03,0.01
			c-0.02,0-0.03,0.01-0.04,0.01c0,0.05,0.01,0.09,0.01,0.14c0,0.05,0,0.09,0.01,0.14c0,0.04,0.01,0.08,0.01,0.12
			c0.01,0.04,0.01,0.08,0.02,0.13c0.08-0.04,0.15-0.08,0.23-0.12c0.07-0.04,0.15-0.08,0.23-0.12c0.01,0,0.03,0.01,0.04,0.01
			c0.01,0,0.03,0.01,0.04,0.01c0,0.01,0.01,0.01,0.01,0.02s0.01,0.02,0.02,0.02c0,0.01,0.01,0.03,0.02,0.06
			c0.02,0.03,0.03,0.05,0.03,0.06c0,0.02,0,0.04,0.01,0.04c0,0,0.01,0.02,0.01,0.04c0,0.03,0,0.04,0,0.05
			c0.01,0.01,0.02,0.03,0.03,0.04c0.01,0.01,0.01,0.03,0.01,0.05c-0.03,0.05-0.06,0.08-0.1,0.09c-0.03,0.02-0.06,0.03-0.1,0.05
			c-0.01,0.01-0.02,0.01-0.04,0.02c-0.01,0.01-0.02,0.02-0.04,0.02c-0.02,0.01-0.04,0.02-0.05,0.02c-0.02,0.01-0.04,0.02-0.05,0.03
			c-0.03,0.02-0.06,0.04-0.09,0.06c-0.03,0.02-0.06,0.04-0.09,0.05c-0.03,0.01-0.04,0.02-0.05,0.03c-0.01,0.01-0.02,0.02-0.04,0.04
			v0.11v0.21c0,0.03,0,0.06,0,0.08c0,0.03,0,0.06,0,0.09c0,0.03-0.01,0.05-0.01,0.07v0.07c0.01-0.01,0.02-0.01,0.03-0.01
			c0.01,0,0.02-0.01,0.03-0.01c0.01,0,0.02,0,0.03,0s0.02,0,0.03-0.01c0.01,0,0.02-0.01,0.03-0.01c0.01,0,0.01-0.01,0.02-0.01
			c0.03-0.02,0.06-0.04,0.08-0.04c0.02-0.01,0.04-0.01,0.06-0.02c0.04-0.02,0.08-0.03,0.11-0.05c0.04-0.02,0.07-0.04,0.11-0.05
			c0.02,0.01,0.04,0,0.05-0.01c0.01,0,0.02,0.01,0.03,0.01c0.01,0,0.02,0,0.03,0c0.03,0.03,0.04,0.05,0.05,0.07
			c0.01,0.02,0.02,0.03,0.03,0.05c0.01,0.02,0.02,0.04,0.02,0.04c0,0.01,0,0.01-0.01,0.03C40.77,25.72,40.77,25.73,40.77,25.74z"/>
		<path class="st0" d="M41.99,23.19c0.01,0.05,0.02,0.1,0.03,0.15c0.01,0.05,0.03,0.1,0.04,0.14c0.03,0.01,0.06,0.01,0.06,0.01
			c0.01,0,0.02,0.01,0.03,0.01c0.03,0.07,0.04,0.15,0.05,0.23c0.01,0.08,0.01,0.16,0.03,0.24c0.04,0.07,0.08,0.14,0.09,0.22
			c0.02,0.08,0.04,0.16,0.07,0.24c0.01,0.03,0.01,0.04,0.01,0.05c0,0.01,0,0.01,0,0.02c0.01,0.05,0.03,0.09,0.04,0.14
			s0.03,0.1,0.04,0.14c0.01,0.02,0.01,0.05,0.02,0.07c0.01,0.02,0.02,0.05,0.02,0.07c0.01,0.03,0.01,0.06,0.02,0.08
			c0.01,0.03,0.01,0.06,0.02,0.08c0.02,0.06,0.03,0.11,0.05,0.16c0.02,0.06,0.04,0.11,0.06,0.16c0.01,0.02,0.02,0.06,0.04,0.13
			c0.02,0.07,0.04,0.14,0.06,0.21c0.02,0.07,0.04,0.14,0.06,0.2c0.02,0.06,0.03,0.1,0.03,0.11c0,0.02,0,0.04,0.01,0.07
			c0,0.02,0.01,0.05,0.01,0.07c-0.01,0.03-0.02,0.04-0.03,0.05c-0.01,0-0.03,0-0.04,0c-0.01,0.01-0.02,0.01-0.03,0.02
			c-0.01,0.01-0.02,0.01-0.03,0.02c-0.01,0-0.01,0.01-0.02,0.01c0,0.01-0.01,0.01-0.02,0.01c-0.03,0-0.05,0-0.05,0.01
			c-0.01,0.01-0.02,0.01-0.04,0.01c-0.02-0.01-0.03-0.01-0.04,0c-0.01,0.01-0.01,0.01-0.02,0.01c-0.01,0.01-0.02,0.01-0.03,0.01
			s-0.02,0-0.03,0c0-0.01-0.01-0.02-0.01-0.03c0-0.01-0.01-0.02-0.02-0.04c-0.03-0.04-0.04-0.09-0.05-0.13
			c-0.01-0.04-0.02-0.07-0.03-0.1c-0.01-0.03-0.02-0.06-0.03-0.09c-0.01-0.03-0.02-0.06-0.03-0.09c-0.01,0.01-0.03,0.01-0.04,0.02
			c-0.01,0.01-0.02,0.02-0.03,0.03c-0.03,0-0.04,0-0.04,0.01c0,0.01,0,0.02-0.01,0.02c-0.01,0.01-0.02,0.01-0.03,0.02
			c-0.01,0.01-0.02,0.01-0.04,0c-0.01,0.01-0.02,0.03-0.03,0.04c-0.01,0.01-0.03,0.02-0.04,0.02c-0.02,0.02-0.04,0.04-0.06,0.06
			c-0.02,0.02-0.04,0.02-0.07,0.01c-0.03,0.01-0.06,0.02-0.1,0.02c-0.03,0.01-0.06,0.01-0.1,0.01c-0.04-0.01-0.06-0.03-0.07-0.04
			c-0.01-0.01-0.02-0.02-0.04-0.02c0-0.04,0-0.06-0.02-0.08c0-0.01,0-0.02,0-0.04c0-0.02,0-0.03,0.01-0.04
			c0.03-0.02,0.05-0.03,0.05-0.05c0-0.02,0.02-0.03,0.04-0.04c0-0.01,0.01-0.02,0.02-0.03c0.01-0.01,0.01-0.02,0.02-0.03
			c0.01-0.01,0.02-0.01,0.03-0.01c0.01,0,0.01-0.01,0.02-0.02c0.01,0,0.03-0.01,0.05-0.03c0.02-0.02,0.04-0.03,0.04-0.04
			c0.02-0.01,0.03-0.02,0.03-0.02c0-0.01,0.01-0.01,0.02-0.02c0.02,0,0.04,0,0.04-0.01c0.02,0.01,0.04,0.02,0.06,0.02
			c0.01,0,0.02,0,0.02,0c0.01,0,0.01,0,0.02,0c0.02-0.02,0.04-0.04,0.07-0.04c0.03-0.01,0.05-0.02,0.07-0.04
			c-0.01-0.02-0.01-0.05-0.02-0.08c0-0.03-0.01-0.06-0.02-0.08c0-0.04-0.01-0.07-0.02-0.1c-0.01-0.03-0.02-0.06-0.03-0.09
			c-0.03-0.12-0.06-0.23-0.09-0.34c-0.03-0.11-0.06-0.22-0.09-0.34c0-0.01-0.01-0.03-0.02-0.04c-0.01-0.02-0.01-0.03-0.02-0.04
			c-0.01,0.03-0.02,0.05-0.02,0.06c0,0,0,0.01-0.01,0.01c0,0.01,0,0.03-0.01,0.04c0,0.01-0.01,0.02-0.01,0.04
			c-0.01,0.02-0.01,0.05-0.02,0.07c-0.01,0.03-0.01,0.05-0.02,0.07c-0.01,0.05-0.02,0.1-0.03,0.15c-0.01,0.05-0.02,0.1-0.03,0.15
			c-0.02,0.09-0.05,0.17-0.07,0.25c-0.02,0.08-0.05,0.17-0.07,0.25c0,0.04-0.01,0.07-0.02,0.09c-0.01,0.02-0.01,0.04-0.02,0.06
			c-0.01,0.02-0.01,0.04-0.01,0.06c0,0.02-0.01,0.03-0.01,0.05c-0.03,0.09-0.06,0.18-0.08,0.27s-0.05,0.18-0.08,0.26
			c-0.01,0.01-0.02,0.01-0.02,0.02c-0.01,0.01-0.01,0.01-0.02,0.01c-0.02,0-0.03-0.01-0.03-0.02c0-0.01-0.01-0.02-0.02-0.02
			c-0.01,0-0.02,0-0.02,0.01c-0.01,0-0.01,0.01-0.02,0.01c-0.01-0.01-0.02-0.01-0.04-0.01c-0.01,0-0.03-0.01-0.03-0.02
			c-0.02,0.01-0.03,0.02-0.05,0.02c-0.02,0-0.04-0.01-0.06-0.02c-0.01,0.01-0.03,0.01-0.04,0.01c-0.01,0-0.01,0-0.02,0
			c-0.01,0-0.02-0.01-0.02-0.01c0-0.01,0-0.02,0-0.03c0-0.01,0-0.02,0-0.04c0-0.03,0-0.05-0.01-0.06c0.04-0.14,0.08-0.28,0.12-0.43
			c0.04-0.14,0.08-0.29,0.12-0.44c0.02-0.07,0.04-0.14,0.06-0.2c0.02-0.07,0.04-0.13,0.06-0.2c0.01-0.04,0.02-0.07,0.02-0.11
			c0.01-0.03,0.02-0.07,0.03-0.1c0.02-0.07,0.04-0.14,0.06-0.22c0.02-0.07,0.04-0.15,0.05-0.22c0.01-0.01,0.01-0.02,0.02-0.03
			c0-0.01,0.01-0.02,0.01-0.04l0-0.05c0.02-0.03,0.03-0.05,0.03-0.07c0.01-0.02,0.01-0.04,0.01-0.06c0.01-0.03,0.02-0.07,0.03-0.11
			c0.01-0.04,0.02-0.07,0.02-0.11c0-0.04,0.01-0.09,0.01-0.15c0-0.06,0.01-0.1,0.02-0.14c0-0.01,0.01-0.02,0.01-0.02
			c0,0,0.01-0.01,0.01-0.03c0-0.01,0.01-0.01,0.02-0.02c0.01-0.01,0.01-0.01,0.01-0.02c0.01-0.02,0.02-0.04,0.01-0.06
			c0-0.02-0.01-0.03-0.01-0.05c0.02-0.01,0.03-0.03,0.03-0.04c0-0.01,0-0.02,0-0.03c0-0.01,0.01-0.03,0.02-0.04
			c0.01-0.01,0.02-0.03,0.03-0.04c0.01,0,0.03,0,0.04,0.01c0.01,0,0.03,0,0.04,0C41.94,23.17,41.96,23.19,41.99,23.19L41.99,23.19z"
			/>
		<path class="st0" d="M43.87,23.28c0,0.01,0.01,0.02,0.02,0.02c0.01,0,0.01,0.01,0.01,0.03c0.02,0.01,0.03,0.02,0.04,0.03
			c0.01,0.01,0.01,0.02,0.02,0.04c0.02,0.02,0.03,0.03,0.04,0.04c0,0.01,0.01,0.01,0.01,0.02c0.01,0.01,0.02,0.02,0.03,0.03
			c0.01,0.01,0.02,0.02,0.02,0.04c0.02,0.02,0.03,0.03,0.03,0.05c0,0.01,0.01,0.02,0.01,0.04c-0.01,0.02-0.03,0.05-0.06,0.08
			s-0.06,0.07-0.09,0.11c-0.03,0.04-0.07,0.07-0.1,0.11c-0.03,0.03-0.06,0.06-0.08,0.08c0,0.01-0.01,0.02-0.02,0.03
			c-0.01,0.01-0.01,0.02-0.02,0.03c-0.01,0.01-0.03,0.03-0.04,0.04c-0.01,0.02-0.03,0.03-0.04,0.04c-0.02,0.04-0.06,0.08-0.1,0.11
			c-0.04,0.04-0.07,0.07-0.08,0.11c0,0.01,0.01,0.02,0.02,0.02c0.01,0.01,0.01,0.02,0.02,0.02c0.02,0.02,0.04,0.04,0.07,0.06
			c0.03,0.02,0.05,0.04,0.07,0.06c0.02,0.02,0.04,0.04,0.06,0.06c0.02,0.02,0.04,0.04,0.06,0.06c0.01,0.01,0.02,0.03,0.03,0.05
			c0.02,0.02,0.05,0.04,0.07,0.06c0.02,0.02,0.04,0.04,0.06,0.06c0.04,0.04,0.09,0.09,0.13,0.13s0.08,0.09,0.13,0.13l0.03,0.04
			c0,0.02,0.01,0.05,0.02,0.08c0.01,0.03,0.02,0.05,0.03,0.07c0,0.03,0,0.04,0,0.05c0.01,0.01,0.01,0.01,0.02,0.02
			c0,0.05,0,0.09,0,0.1c-0.04,0.04-0.08,0.08-0.11,0.11c-0.03,0.03-0.06,0.07-0.09,0.1c-0.02,0.03-0.04,0.06-0.06,0.08
			c-0.02,0.02-0.05,0.05-0.07,0.08c-0.01,0.02-0.03,0.04-0.03,0.05c-0.02,0.02-0.03,0.03-0.05,0.05c-0.03,0.03-0.05,0.06-0.08,0.09
			c-0.03,0.03-0.05,0.06-0.08,0.08c-0.02,0.02-0.04,0.04-0.05,0.06c-0.02,0.02-0.03,0.04-0.05,0.06c-0.01,0.02-0.03,0.04-0.05,0.06
			c-0.02,0.02-0.04,0.04-0.05,0.05c-0.01,0.02-0.02,0.03-0.03,0.04c-0.01,0.01-0.02,0.03-0.03,0.04c-0.02,0.01-0.03,0.02-0.04,0.03
			c-0.01,0.01-0.03,0.02-0.05,0.03c-0.02-0.02-0.04-0.03-0.05-0.05c-0.02-0.01-0.04-0.02-0.06-0.03c-0.01-0.01-0.02-0.03-0.03-0.04
			c-0.01-0.01-0.02-0.02-0.04-0.03c0-0.01-0.01-0.02-0.02-0.03c-0.01-0.01-0.01-0.02-0.02-0.03c-0.03,0-0.05-0.02-0.07-0.06
			c0-0.02,0.01-0.03,0.02-0.04c0.01-0.01,0.01-0.02,0.01-0.05c0.01-0.03,0.03-0.05,0.05-0.07c0.02-0.02,0.04-0.04,0.06-0.06
			c0.02-0.02,0.04-0.04,0.06-0.07c0.02-0.02,0.04-0.05,0.06-0.07c0.01-0.01,0.02-0.03,0.03-0.04c0.01-0.01,0.02-0.03,0.04-0.04
			c0.03-0.03,0.05-0.06,0.08-0.08c0.03-0.03,0.05-0.05,0.08-0.08c0.04-0.04,0.07-0.09,0.11-0.13c0.04-0.04,0.07-0.08,0.11-0.13
			c0-0.01-0.01-0.02-0.01-0.02c0,0-0.01-0.01-0.01-0.02c-0.04-0.04-0.07-0.08-0.11-0.12c-0.04-0.04-0.07-0.07-0.12-0.11
			c-0.01-0.02-0.02-0.03-0.03-0.04c-0.04-0.04-0.08-0.08-0.12-0.12c-0.04-0.04-0.08-0.08-0.13-0.11c-0.01-0.01-0.02-0.03-0.03-0.04
			c-0.01-0.01-0.02-0.02-0.04-0.03c-0.01-0.01-0.01-0.03-0.02-0.04c-0.01-0.01-0.02-0.02-0.03-0.02c-0.02-0.02-0.03-0.04-0.04-0.05
			c-0.01-0.01-0.02-0.02-0.03-0.02c0-0.01-0.01-0.02-0.02-0.03c-0.01-0.01-0.02-0.02-0.03-0.03c0-0.02-0.01-0.03-0.02-0.04
			c0-0.02,0-0.04,0-0.05c0-0.01,0.01-0.02,0.01-0.02c0-0.02-0.01-0.03-0.02-0.04c-0.01-0.01-0.02-0.02-0.02-0.04
			c0-0.01,0-0.02,0.01-0.02c0.01,0,0.01-0.01,0.01-0.02L43,24.2c0.02-0.02,0.03-0.04,0.05-0.06c0.01-0.02,0.03-0.04,0.05-0.06
			c0.02-0.04,0.05-0.08,0.09-0.1c0.01-0.02,0.03-0.04,0.04-0.05c0.02-0.01,0.03-0.03,0.04-0.05c0.02-0.01,0.03-0.03,0.05-0.05
			c0.01-0.02,0.03-0.03,0.05-0.05c0-0.01,0.01-0.02,0.02-0.03c0.01-0.01,0.01-0.01,0.01-0.02c0.06-0.07,0.12-0.13,0.16-0.19
			c0.05-0.05,0.1-0.1,0.15-0.16c0.01-0.01,0.03-0.03,0.04-0.05c0.01-0.02,0.03-0.03,0.04-0.05c0-0.01,0.01-0.01,0.02-0.01
			c0.01,0,0.01,0,0.02-0.01C43.85,23.28,43.86,23.28,43.87,23.28z"/>
		<path class="st0" d="M45.1,25.24c0,0.01,0.02,0.04,0.05,0.09c0.03,0.04,0.06,0.09,0.1,0.14c0.04,0.05,0.07,0.1,0.11,0.15
			c0.03,0.05,0.06,0.08,0.07,0.11c0.03,0.04,0.05,0.08,0.07,0.11c0.02,0.04,0.05,0.08,0.07,0.12l0.06,0.12
			c0.02,0.03,0.04,0.05,0.05,0.07c0.01,0.02,0.03,0.05,0.04,0.08c0,0.02,0.01,0.04,0.01,0.05c0,0.02-0.01,0.03-0.02,0.04
			c-0.02,0-0.03,0-0.03,0.01s-0.01,0.01-0.02,0.02c-0.01,0.01-0.02,0.01-0.04,0.01c-0.02,0-0.04,0-0.05,0c-0.02,0-0.05,0-0.08,0
			c-0.03,0-0.06,0-0.07,0.01c0,0-0.01,0.01-0.02,0.01c-0.01,0.01-0.02,0.01-0.02,0.01c-0.02,0-0.03,0-0.04-0.01
			c-0.01-0.01-0.02-0.01-0.03-0.01c-0.02-0.02-0.03-0.05-0.05-0.08c-0.01-0.03-0.03-0.05-0.04-0.08c-0.02-0.02-0.03-0.04-0.05-0.05
			c-0.02-0.02-0.03-0.03-0.04-0.05c-0.03-0.06-0.07-0.12-0.11-0.18s-0.07-0.11-0.11-0.17c-0.02-0.03-0.04-0.06-0.06-0.08
			c-0.02-0.02-0.04-0.05-0.06-0.08c-0.02-0.03-0.04-0.06-0.05-0.09c-0.02-0.03-0.03-0.06-0.05-0.09c-0.01-0.02-0.03-0.06-0.06-0.1
			c-0.02-0.04-0.05-0.08-0.08-0.12c-0.03-0.04-0.06-0.08-0.08-0.11c-0.03-0.04-0.05-0.06-0.07-0.08c0-0.02-0.01-0.03-0.02-0.04
			c-0.01-0.01-0.02-0.02-0.03-0.03c0-0.01-0.01-0.03-0.02-0.04c-0.01-0.01-0.01-0.03-0.01-0.04c0-0.02,0-0.04,0.01-0.05
			c0-0.01,0.01-0.02,0.01-0.03c0-0.01,0-0.02,0.01-0.03c0.01-0.03,0.03-0.06,0.05-0.09c0.02-0.03,0.04-0.06,0.05-0.09
			c0-0.01,0.01-0.02,0.01-0.03c0-0.01,0-0.02,0.01-0.03c0-0.02,0.01-0.04,0.03-0.06c0.01-0.02,0.03-0.03,0.04-0.05
			c0.01-0.02,0.02-0.04,0.03-0.07c0.01-0.02,0.02-0.05,0.03-0.08c0.03-0.07,0.07-0.14,0.11-0.2c0.04-0.06,0.08-0.13,0.12-0.2
			c0.03-0.05,0.06-0.11,0.09-0.16c0.03-0.05,0.06-0.1,0.09-0.15c0.02-0.02,0.03-0.05,0.05-0.09s0.04-0.07,0.06-0.1
			s0.04-0.06,0.07-0.09c0.02-0.03,0.05-0.05,0.07-0.07c0.03,0,0.06,0.01,0.07,0.03s0.03,0.03,0.05,0.03
			c0.03,0.01,0.05,0.02,0.06,0.03c0.01,0.01,0.02,0.03,0.03,0.04c0.03,0,0.06,0.01,0.08,0.02c0.02,0.01,0.04,0.03,0.06,0.06
			c-0.01,0.03-0.02,0.06-0.03,0.08c-0.01,0.02-0.03,0.05-0.04,0.07c-0.02,0.01-0.03,0.03-0.04,0.05c-0.01,0.02-0.02,0.03-0.04,0.05
			c-0.02,0.05-0.05,0.09-0.07,0.13c-0.03,0.04-0.05,0.08-0.08,0.13c-0.01,0.02-0.03,0.05-0.04,0.07c-0.01,0.02-0.03,0.04-0.04,0.06
			c0,0.01-0.01,0.02-0.01,0.03c0,0.01-0.01,0.02-0.01,0.03c-0.03,0.05-0.06,0.1-0.09,0.15c-0.03,0.05-0.06,0.1-0.09,0.15
			C45,24.41,45,24.43,44.99,24.45c-0.01,0.02-0.01,0.04-0.02,0.06c-0.01,0.02-0.02,0.04-0.04,0.07c-0.02,0.03-0.03,0.06-0.05,0.09
			c-0.02,0.03-0.03,0.06-0.04,0.09c-0.01,0.03-0.02,0.05-0.02,0.07c0,0.01,0.02,0.04,0.04,0.08c0.03,0.04,0.06,0.08,0.09,0.13
			c0.03,0.05,0.06,0.09,0.09,0.13C45.07,25.2,45.09,25.23,45.1,25.24z M45.33,24.49c0.02,0.04,0.03,0.08,0.05,0.11
			c0.01,0.01,0.01,0.02,0.02,0.03c0.01,0.01,0.02,0.02,0.02,0.03c0,0.01,0.01,0.02,0.01,0.04c0,0.02,0.01,0.03,0.01,0.04
			c0.01,0.02,0.02,0.05,0.04,0.07c0.02,0.03,0.03,0.05,0.03,0.07c0,0.01,0,0.03-0.01,0.05c0,0.02-0.01,0.03-0.01,0.05
			c0,0.02,0,0.03,0,0.05c0,0.02,0,0.03-0.01,0.05c-0.01,0.01-0.02,0.02-0.04,0.02c-0.01,0-0.03,0.01-0.04,0.02
			c0,0.01-0.01,0.02-0.02,0.03c-0.01,0.01-0.02,0.03-0.03,0.05c-0.01,0.02-0.02,0.03-0.03,0.05c-0.01,0.02-0.01,0.03-0.01,0.04
			c-0.03,0-0.05,0-0.05,0c-0.01,0-0.02,0-0.03,0c-0.01-0.01-0.02-0.03-0.04-0.04c-0.01-0.01-0.03-0.02-0.05-0.03
			c0-0.02-0.01-0.05-0.03-0.08c-0.02-0.03-0.03-0.05-0.04-0.07l-0.02-0.04c-0.03-0.06-0.07-0.11-0.09-0.17
			c-0.03-0.05-0.05-0.11-0.06-0.18c0.04-0.04,0.08-0.07,0.1-0.09c0.02-0.02,0.05-0.04,0.08-0.05c0.03-0.02,0.05-0.03,0.08-0.05
			c0.03-0.02,0.05-0.03,0.07-0.06c0.02,0,0.03,0,0.04,0c0.01,0,0.01,0.01,0.01,0.01c0,0,0.01,0.01,0.01,0.01
			C45.31,24.47,45.32,24.48,45.33,24.49z"/>
	</g>
	<g>
		<path class="st0" d="M23.34,9h3.89c0.73,0,1.3,0.21,1.72,0.62c0.42,0.41,0.62,0.96,0.62,1.65c0,0.33-0.05,0.61-0.14,0.84
			c-0.09,0.23-0.21,0.42-0.35,0.57c-0.14,0.15-0.31,0.26-0.49,0.33c-0.18,0.07-0.36,0.12-0.54,0.13v0.08
			c0.18,0.01,0.37,0.05,0.58,0.13c0.21,0.08,0.41,0.19,0.6,0.36c0.18,0.16,0.34,0.37,0.47,0.63c0.13,0.26,0.19,0.57,0.19,0.94
			c0,0.35-0.06,0.68-0.17,0.99s-0.27,0.58-0.47,0.8c-0.2,0.23-0.44,0.4-0.72,0.53c-0.28,0.13-0.58,0.19-0.91,0.19h-4.28V9z
			 M24.76,12.71h2.2c0.35,0,0.62-0.09,0.82-0.27c0.19-0.18,0.29-0.44,0.29-0.77v-0.4c0-0.34-0.1-0.59-0.29-0.77
			c-0.19-0.18-0.47-0.27-0.82-0.27h-2.2V12.71z M24.76,16.56h2.44c0.37,0,0.66-0.1,0.87-0.29c0.21-0.19,0.31-0.47,0.31-0.83v-0.43
			c0-0.36-0.1-0.64-0.31-0.83c-0.21-0.19-0.5-0.29-0.87-0.29h-2.44V16.56z"/>
		<path class="st0" d="M32.22,10.07c-0.29,0-0.49-0.07-0.62-0.2c-0.13-0.13-0.19-0.31-0.19-0.52V9.14c0-0.21,0.06-0.38,0.19-0.52
			c0.13-0.13,0.34-0.2,0.62-0.2c0.28,0,0.49,0.07,0.62,0.2c0.13,0.13,0.19,0.31,0.19,0.52v0.21c0,0.21-0.06,0.38-0.19,0.52
			C32.71,10.01,32.51,10.07,32.22,10.07z M31.53,11.24h1.37v6.54h-1.37V11.24z"/>
		<path class="st0" d="M40.6,18.4c0,0.68-0.26,1.19-0.78,1.53c-0.52,0.34-1.37,0.52-2.54,0.52c-0.54,0-0.99-0.04-1.36-0.11
			c-0.37-0.07-0.68-0.17-0.92-0.31c-0.24-0.13-0.41-0.3-0.52-0.49c-0.11-0.19-0.16-0.42-0.16-0.67c0-0.36,0.1-0.64,0.3-0.84
			c0.2-0.2,0.47-0.34,0.82-0.42v-0.14c-0.49-0.16-0.74-0.49-0.74-1.01c0-0.34,0.11-0.59,0.34-0.77c0.23-0.18,0.5-0.31,0.82-0.38
			v-0.05c-0.39-0.18-0.68-0.44-0.89-0.77c-0.21-0.33-0.31-0.72-0.31-1.16c0-0.67,0.22-1.21,0.67-1.62c0.45-0.41,1.09-0.62,1.93-0.62
			c0.46,0,0.86,0.07,1.18,0.2v-0.18c0-0.29,0.07-0.52,0.21-0.69c0.14-0.16,0.35-0.25,0.65-0.25h1.01v1.11h-1.33v0.26
			c0.29,0.19,0.52,0.44,0.68,0.75c0.16,0.31,0.24,0.65,0.24,1.02c0,0.66-0.23,1.2-0.68,1.6c-0.45,0.41-1.1,0.61-1.94,0.61
			c-0.32,0-0.6-0.03-0.86-0.1c-0.17,0.06-0.31,0.14-0.44,0.25c-0.13,0.1-0.19,0.24-0.19,0.41c0,0.18,0.08,0.3,0.24,0.38
			c0.16,0.08,0.39,0.11,0.68,0.11h1.61c0.8,0,1.39,0.16,1.75,0.48C40.42,17.39,40.6,17.84,40.6,18.4z M39.32,18.55
			c0-0.23-0.09-0.41-0.26-0.54c-0.17-0.13-0.48-0.2-0.94-0.2h-2.21c-0.3,0.18-0.45,0.43-0.45,0.75c0,0.27,0.11,0.48,0.32,0.65
			c0.21,0.16,0.58,0.25,1.09,0.25h0.86C38.78,19.45,39.32,19.15,39.32,18.55z M37.27,14.55c0.4,0,0.71-0.09,0.94-0.27
			c0.22-0.18,0.33-0.46,0.33-0.84v-0.25c0-0.38-0.11-0.66-0.33-0.84c-0.22-0.18-0.53-0.27-0.94-0.27c-0.4,0-0.71,0.09-0.94,0.27
			C36.11,12.54,36,12.81,36,13.19v0.25c0,0.38,0.11,0.66,0.33,0.84C36.55,14.46,36.86,14.55,37.27,14.55z"/>
		<path class="st0" d="M41.72,17.78V9h3.77c0.81,0,1.44,0.24,1.89,0.72c0.44,0.48,0.67,1.12,0.67,1.92c0,0.8-0.22,1.45-0.67,1.92
			c-0.44,0.48-1.07,0.72-1.89,0.72h-2.35v3.5H41.72z M43.14,13.03h2.26c0.36,0,0.64-0.09,0.84-0.28c0.2-0.19,0.3-0.45,0.3-0.8v-0.6
			c0-0.35-0.1-0.62-0.3-0.8c-0.2-0.19-0.48-0.28-0.84-0.28h-2.26V13.03z"/>
		<path class="st0" d="M54.14,17.78c-0.36,0-0.64-0.1-0.83-0.31c-0.19-0.21-0.31-0.47-0.35-0.79H52.9
			c-0.13,0.41-0.36,0.72-0.69,0.93c-0.34,0.21-0.74,0.31-1.22,0.31c-0.68,0-1.2-0.18-1.57-0.53c-0.36-0.35-0.55-0.83-0.55-1.42
			c0-0.65,0.24-1.14,0.71-1.47c0.47-0.33,1.17-0.49,2.08-0.49h1.18v-0.55c0-0.4-0.11-0.71-0.33-0.93c-0.22-0.22-0.56-0.33-1.02-0.33
			c-0.39,0-0.7,0.08-0.94,0.25c-0.24,0.17-0.45,0.38-0.62,0.64l-0.82-0.74c0.22-0.37,0.52-0.67,0.92-0.91
			c0.39-0.24,0.91-0.36,1.55-0.36c0.85,0,1.5,0.2,1.95,0.59c0.45,0.39,0.68,0.96,0.68,1.7v3.28h0.69v1.12H54.14z M51.38,16.89
			c0.43,0,0.78-0.09,1.06-0.28c0.28-0.19,0.42-0.44,0.42-0.76V14.9h-1.16c-0.95,0-1.42,0.29-1.42,0.88v0.23
			c0,0.29,0.1,0.51,0.3,0.66C50.76,16.82,51.03,16.89,51.38,16.89z"/>
		<path class="st0" d="M60.18,11.24h1.32l-2.75,7.84c-0.08,0.22-0.16,0.4-0.26,0.56c-0.1,0.16-0.21,0.28-0.34,0.38
			c-0.13,0.1-0.29,0.17-0.47,0.21c-0.18,0.05-0.4,0.07-0.65,0.07h-0.79v-1.12h1.11l0.38-1.11l-2.38-6.83h1.37l1.31,3.85l0.38,1.42
			h0.06l0.42-1.42L60.18,11.24z"/>
	</g>
</g>
</svg>
